{
	"asset":{
		"version":"2.0",
		"generator":"Created using the official Cinema 4D glTF Exporter 1.000x284978"
	},
	"scenes":[{
		"nodes":[0,
		1]
	}],
	"nodes":[{
		"name":"Boole",
		"translation":[-24.442411422729493,
		4.753937244415283,
		38.8421516418457],
		"rotation":[0.0,
		0.0,
		0.0,
		-1.0],
		"scale":[1.0,
		1.0,
		1.0],
		"mesh":0
	},
	{
		"name":"Perspective",
		"translation":[0.0,
		0.0,
		600.0],
		"rotation":[0.0,
		0.0,
		0.0,
		-1.0],
		"scale":[1.0,
		1.0,
		1.0],
		"camera":0
	}],
	"meshes":[{
		"name":"Boole",
		"primitives":[{
			"attributes":{
				"POSITION":1,
				"NORMAL":2,
				"TEXCOORD_0":3
			},
			"indices":0
		}]
	}],
	"cameras":[{
		"type":"perspective",
		"perspective":{
			"znear":0.009999999776482582,
			"zfar":10000000000.0,
			"aspectRatio":1.7777777910232545,
			"yfov":0.5483348965644836
		}
	}],
	"accessors":[{
		"count":8448,
		"bufferView":0,
		"type":"SCALAR",
		"componentType":5123,
		"byteOffset":0,
		"min":[0],
		"max":[2018]
	},
	{
		"count":2019,
		"bufferView":1,
		"type":"VEC3",
		"componentType":5126,
		"byteOffset":0,
		"min":[-46.07752227783203,
		-24.128578186035158,
		26.855121612548829],
		"max":[94.96234893798828,
		54.386634826660159,
		59.630348205566409]
	},
	{
		"count":2019,
		"bufferView":1,
		"type":"VEC3",
		"componentType":5126,
		"byteOffset":12,
		"min":[-0.9966260194778442,
		-0.8480955362319946,
		-0.9563086032867432],
		"max":[0.9966259002685547,
		0.9637833833694458,
		0.9998285174369812]
	},
	{
		"count":2019,
		"bufferView":1,
		"type":"VEC2",
		"componentType":5126,
		"byteOffset":24,
		"min":[0.5070507526397705,
		0.09353946149349213],
		"max":[0.8756506443023682,
		0.8873438835144043]
	}],
	"bufferViews":[{
		"buffer":0,
		"byteOffset":0,
		"byteLength":16896,
		"target":34963
	},
	{
		"buffer":0,
		"byteOffset":16896,
		"byteLength":64608,
		"target":34962,
		"byteStride":32
	}],
	"buffers":[{
		"uri":"data:application/octet-stream;base64,",
		"byteLength":81504
	}]
}