<svg width="2238" height="553" viewBox="0 0 2238 553" fill="rgba(100, 100, 100, 50)" xmlns="http://www.w3.org/2000/svg">
   <path d="M2086.32 375.661C2037.84 375.661 1999.86 338.39 1999.86 283.202C1999.86 227.636 2037.05 189.486 2086.35 188.948C2086.65 188.944 2086.93 188.944 2087.22 188.944C2108.52 188.944 2128.86 197.477 2144.58 213.036C2163.47 231.715 2173.09 253.948 2173.09 283.202C2173.09 338.39 2135.42 375.661 2086.32 375.661ZM2228.2 141.294H2187.5C2184.96 141.294 2182.58 142.298 2180.8 144.115C2179.03 145.931 2178.09 148.327 2178.14 150.806V167.873C2178.14 172.623 2172.31 174.981 2169.09 171.494C2147.27 147.894 2112.73 133.498 2075.17 133.498C1998.4 133.498 1940.51 197.861 1940.51 283.202C1940.51 368.54 1998.4 432.898 2075.17 432.898C2114.67 432.898 2150.98 420.74 2171.7 393.165C2174.72 389.157 2181.14 391.444 2181.1 396.461V420.257C2181.1 465.811 2134.28 498.602 2089.82 498.602H1974.07C1969.66 498.602 1966.08 502.177 1966.08 506.59V544.89C1966.08 549.298 1969.66 552.873 1974.07 552.873H2090.95C2175.87 552.873 2237.56 510.194 2237.56 421.273V150.652C2237.56 145.486 2233.37 141.294 2228.2 141.294Z" fill="rgba(100, 100, 100, 50)"/>
   <path d="M202.889 252.853C205.676 211.199 239.176 180.036 281.61 180.036C324.001 180.036 355.368 210.54 356.881 252.853H202.889ZM282.781 124.69C197.614 124.69 133.389 192.436 133.389 282.278C133.389 374.37 194.822 438.687 282.781 438.687C340.36 438.687 386.464 414.878 412.589 371.636C414.881 367.853 413.702 362.924 409.968 360.657L373.122 338.245C369.447 336.016 364.722 337.074 362.376 340.686C347.143 364.091 317.826 378.066 283.951 378.066C237.901 378.066 204.86 350.886 201.164 304.103H415.818C419.835 304.103 423.222 301.132 423.702 297.186C424.277 292.453 424.564 282.157 424.564 274.67C424.564 187.765 364.935 124.69 282.781 124.69Z" fill="rgba(100, 100, 100, 50)"/>
   <path d="M55.5959 9.43164H8.35417C3.98334 9.43164 0.425001 12.9858 0.425001 17.3566L0 422.411C0 426.782 3.55834 430.344 7.93334 430.344H55.1709C59.5459 430.344 63.1042 426.782 63.1042 422.415L63.5667 17.365C63.5667 12.99 59.9917 9.43164 55.5959 9.43164Z" fill="rgba(100, 100, 100, 50)"/>
   <path d="M1070.75 133.262L989.305 133.045C985.43 133.045 981.784 135.283 980.363 138.887C974.417 153.949 958.351 166.795 941.238 166.795C923.484 166.795 908.392 155.362 902.888 139.483C901.542 135.595 897.838 133.024 893.726 133.024H867.138C862.738 133.024 859.176 136.591 859.176 140.987V424.887C859.176 429.196 862.705 432.725 867.013 432.725H914.542C918.851 432.725 922.342 429.233 922.342 424.929V287.925C922.342 236.412 953.888 194.674 1009.76 194.674H1070.75C1075.1 194.674 1078.68 191.104 1078.68 186.712V141.183C1078.68 136.829 1075.11 133.262 1070.75 133.262Z" fill="rgba(100, 100, 100, 50)"/>
   <path d="M625.32 377.817C575.107 377.817 535.774 337.213 535.774 280.059C535.774 222.509 574.282 182.85 625.349 182.292C625.649 182.288 625.949 182.288 626.249 182.288C648.303 182.288 669.37 191.125 685.662 207.238C705.22 226.588 715.991 249.763 715.991 280.059C715.991 337.213 676.166 377.817 625.32 377.817ZM772.258 133.088H730.103C727.474 133.088 725.016 134.125 723.178 136.009C721.337 137.884 720.357 140.371 720.416 142.938V168.884C720.416 171.159 717.553 172.15 716.157 170.35C696.466 144.996 658.182 125.013 613.766 125.013C534.261 125.013 474.303 191.671 474.303 280.059C474.303 368.442 534.261 435.096 613.766 435.096C656.428 435.096 694.062 416.45 716.087 385.4C717.441 383.492 720.42 384.425 720.42 386.767L720.428 422.213C720.199 424.796 721.087 427.334 722.932 429.342C724.916 431.509 727.699 432.746 730.578 432.746H772.262C777.612 432.746 781.949 428.409 781.949 423.059V142.779C781.949 137.429 777.612 133.088 772.258 133.088Z" fill="rgba(100, 100, 100, 50)"/>
   <path d="M1509.89 0C1485.27 0 1465.24 20.0292 1465.24 44.65C1465.24 69.2709 1485.27 89.3001 1509.89 89.3001C1534.52 89.3001 1554.54 69.2709 1554.54 44.65C1554.54 20.0292 1534.52 0 1509.89 0Z" fill="rgba(100, 100, 100, 50)"/>
   <path d="M1533.7 133.046H1486.46C1482.09 133.046 1478.53 136.6 1478.53 140.971L1478.11 422.409C1478.11 426.784 1481.67 430.342 1486.04 430.342H1533.28C1537.65 430.342 1541.21 426.784 1541.21 422.413L1541.68 140.979C1541.68 136.604 1538.1 133.046 1533.7 133.046Z" fill="rgba(100, 100, 100, 50)"/>
   <path d="M1285.34 133.364L1285.32 133.501C1237.34 133.51 1207.99 159.66 1197.75 170.68C1196.27 172.276 1193.62 171.235 1193.61 169.055L1193.43 141.08C1193.4 136.805 1189.94 133.355 1185.67 133.347L1142.5 133.264C1138.21 133.264 1134.73 136.743 1134.73 141.035V416.935C1134.73 429.201 1138.26 432.726 1142.57 432.726H1194.32C1198.62 432.726 1202.11 429.239 1202.11 424.935V263.905C1202.11 223.368 1229.67 186.905 1274.57 186.905L1283.94 187.71C1313.7 192.343 1337.64 218.739 1337.64 255.476V424.935C1337.64 429.239 1341.13 432.726 1345.43 432.726H1392.92C1397.23 432.726 1400.76 429.201 1400.76 424.893V239.989C1400.76 179.21 1357.52 133.285 1285.34 133.364Z" fill="rgba(100, 100, 100, 50)"/>
   <path d="M1778.17 133.364L1778.15 133.501C1730.17 133.51 1700.82 159.66 1690.58 170.68C1689.1 172.276 1686.45 171.235 1686.44 169.055L1686.26 141.072C1686.23 136.805 1682.77 133.355 1678.5 133.347L1635.33 133.264C1631.04 133.264 1627.56 136.743 1627.56 141.035V416.935C1627.56 429.201 1631.09 432.726 1635.4 432.726H1687.15C1691.45 432.726 1694.94 429.239 1694.94 424.935V263.905C1694.94 223.368 1722.5 186.905 1767.4 186.905L1776.77 187.71C1806.53 192.343 1830.47 218.739 1830.47 255.476V424.935C1830.47 429.239 1833.96 432.726 1838.26 432.726H1885.75C1890.06 432.726 1893.59 429.201 1893.59 424.893V239.989C1893.59 179.21 1850.35 133.285 1778.17 133.364Z" fill="rgba(100, 100, 100, 50)"/>
</svg>
